
<svg xmlns="http://www.w3.org/2000/svg" version="1.1" xmlns:xlink="http://www.w3.org/1999/xlink" preserveAspectRatio="none" x="0px" y="0px" width="550px" height="400px" viewBox="0 0 550 400">
<defs>
<g id="Layer1_0_FILL">
<path fill="#666666" stroke="none" d="
M 343.2 144.85
Q 343.55 142.9 344.9 141.2 342.5 138.95 340 136.9 338.5 138.55 336.6 139.2 334.25 139.95 332.6 138.8 330.95 137.6 331 135.15 331 133.05 332.2 131.1 329.5 129.25 326.7 127.6 325.5 129.65 323.55 130.65 321.4 131.8 319.6 130.9 317.8 129.95 317.4 127.5 317.1 125.35 318.05 123.1 315.1 121.7 312 120.55 311.1 122.9 309.3 124.2 307.4 125.7 305.45 125.05 303.55 124.45 302.75 122.1 302.05 119.95 302.75 117.6 299.7 116.75 296.5 116.15 296 118.5 294.45 120.05 292.75 121.8 290.75 121.45 288.75 121.15 287.65 118.95 286.7 117.05 286.9 114.7 283.7 114.35 280.35 114.2 280.25 116.55 279 118.25 277.55 120.25 275.55 120.25 273.5 120.25 272.1 118.25 270.8 116.5 270.65 114.15 267.35 114.25 264.1 114.55 264.4 117 263.35 119 262.25 121.15 260.25 121.5 258.25 121.8 256.55 120.1 254.95 118.45 254.45 115.95 251.2 116.55 248 117.4 248.8 119.9 248.05 122.15 247.35 124.45 245.4 125.1 243.5 125.7 241.5 124.25 239.6 122.85 238.7 120.3 235.7 121.4 232.75 122.75 233.95 125.15 233.55 127.5 233.2 129.95 231.4 130.85 229.6 131.8 227.4 130.65 225.3 129.6 224.05 127.2 221.2 128.8 218.45 130.65 220 132.85 220 135.2 220.05 137.65 218.4 138.8 216.75 140 214.4 139.25 212.2 138.55 210.6 136.45 208.05 138.5 205.55 140.8 207.35 142.7 207.75 144.95 208.15 147.35 206.7 148.8 205.3 150.2 202.85 149.85 200.6 149.45 198.65 147.65 196.4 150.1 194.35 152.6 196.45 154.2 197.2 156.45 197.95 158.8 196.8 160.45 195.6 162.1 193.15 162.05 190.7 162.05 188.45 160.45 186.65 163.15 184.95 166 185.05 166 185.15 166.05 187.65 167.3 188.75 169.5 189.9 171.65 189 173.45 188.05 175.25 185.6 175.65 183.2 176 180.7 174.75 180.6 174.7 180.45 174.65 179.1 177.65 177.95 180.75 178.05 180.75 178.2 180.8 180.85 181.7 182.3 183.65 183.8 185.6 183.15 187.55 182.55 189.45 180.2 190.25 177.85 190.95 175.2 190.05 175.1 190 174.95 190 174.1 193.2 173.45 196.5 173.5 196.5 173.55 196.5 176.35 196.95 178.1 198.7 179.85 200.4 179.5 202.4 179.2 204.4 177 205.5 174.85 206.6 172.05 206.15 171.75 209.4 171.6 212.75 174.35 212.75 176.3 214.15 178.3 215.6 178.3 217.6 178.3 219.65 176.3 221.05 174.35 222.5 171.6 222.5 171.75 225.75 172.05 229 172.1 228.95 172.15 228.95 174.95 228.5 177.1 229.65 179.25 230.75 179.6 232.75 179.9 234.75 178.2 236.45 176.45 238.15 173.65 238.6 173.55 238.6 173.45 238.65 174.15 241.9 174.95 245.1 175.1 245.05 175.2 245 177.9 244.1 180.2 244.85 182.5 245.6 183.15 247.55 183.75 249.45 182.3 251.45 180.9 253.35 178.2 254.25 178.05 254.3 177.9 254.35 179.1 257.45 180.5 260.5 180.6 260.45 180.7 260.4 183.2 259.15 185.6 259.55 188.05 259.9 188.95 261.7 189.9 263.5 188.75 265.7 187.65 267.85 185.15 269.1 185.1 269.15 185 269.2 186.7 272 188.55 274.75 190.8 273.1 193.25 273.1 195.7 273.05 196.85 274.7 198.05 276.35 197.3 278.7 196.55 280.95 194.4 282.55 196.5 285.1 198.8 287.55 200.8 285.6 203.15 285.2 205.55 284.8 207 286.25 208.4 287.65 208.05 290.1 207.65 292.45 205.7 294.45 208.2 296.65 210.7 298.7 212.35 296.5 214.6 295.75 216.95 295 218.6 296.15 220.25 297.35 220.2 299.8 220.2 302.25 218.55 304.5 221.25 306.3 224.05 307.95 225.3 305.45 227.5 304.35 229.65 303.2 231.45 304.1 233.25 305.05 233.65 307.5 234 309.9 232.75 312.4 235.75 313.75 238.8 314.9 239.75 312.25 241.65 310.85 243.6 309.35 245.55 310 247.45 310.6 248.25 312.95 248.95 315.15 248.1 317.8 251.3 318.6 254.5 319.2 255 316.55 256.7 314.85 258.4 313.1 260.4 313.45 262.4 313.75 263.5 315.95 264.55 317.95 264.2 320.55 267.45 320.85 270.75 321 270.85 318.45 272.15 316.65 273.6 314.65 275.6 314.65 277.65 314.65 279.05 316.65 280.35 318.45 280.5 320.95 283.7 320.75 286.85 320.45 286.6 318 287.65 316 288.75 313.85 290.75 313.5 292.7 313.2 294.45 314.9 296 316.5 296.5 319 299.75 318.35 302.85 317.5 302.15 315.05 302.85 312.9 303.6 310.6 305.55 309.95 307.45 309.35 309.45 310.8 311.2 312.1 312.1 314.5 315.25 313.3 318.25 311.9 317.25 309.6 317.6 307.4 317.95 304.95 319.75 304.05 321.55 303.1 323.75 304.25 325.7 305.25 326.9 307.4 329.65 305.75 332.35 303.9 331.05 301.9 331.05 299.7 331 297.25 332.65 296.1 334.3 294.9 336.65 295.65 338.65 296.3 340.1 298.05 342.6 296 345 293.8 343.6 292.05 343.25 290.05 342.85 287.65 344.3 286.2 345.7 284.8 348.15 285.15 350.15 285.5 351.8 286.9 354.05 284.5 356.05 282.05 354.35 280.55 353.7 278.6 352.95 276.25 354.1 274.6 355.3 273 357.75 273 359.85 273 361.8 274.25 363.65 271.5 365.3 268.65 363.2 267.45 362.25 265.5 361.1 263.35 362 261.55 362.95 259.75 365.4 259.35 367.55 259.05 369.7 260 371.05 257 372.2 254 369.95 253.1 368.7 251.35 367.2 249.4 367.85 247.45 368.45 245.55 370.8 244.75 372.8 244.15 375.1 244.75 375.95 241.6 376.55 238.45 374.3 237.9 372.8 236.35 371 234.65 371.35 232.65 371.65 230.7 373.9 229.55 375.7 228.6 377.95 228.8 378.25 225.6 378.4 222.3 376.2 222.1 374.55 220.95 372.55 219.5 372.55 217.5 372.55 215.5 374.55 214.05 376.2 212.85 378.4 212.65 378.25 209.35 377.9 206.1 375.75 206.25 374 205.3 371.85 204.2 371.5 202.2 371.2 200.2 372.9 198.5 374.35 197.1 376.5 196.55 375.9 193.35 375.05 190.2 372.9 190.75 370.9 190.05 368.6 189.35 367.95 187.4 367.35 185.5 368.8 183.5 370.05 181.85 372.15 180.95 371 177.9 369.65 174.95 367.55 175.85 365.45 175.5 363 175.15 362.1 173.35 361.15 171.55 362.3 169.35 363.25 167.5 365.25 166.3 363.6 163.5 361.75 160.75 359.85 161.95 357.75 161.95 355.3 162 354.15 160.35 352.95 158.7 353.7 156.35 354.3 154.45 356 153 353.95 150.45 351.7 148.05 350.05 149.45 348.1 149.75 345.7 150.15 344.25 148.7 342.85 147.3 343.2 144.85
M 330.75 161.55
Q 330.9 161.7 331.05 161.85
L 331.1 161.95
Q 345.25 176.1 350.7 193.9 351.55 196.65 350.6 199.45 350.2 200.7 349.45 201.75 348.6 202.95 347.35 203.85 345 205.55 342.1 205.55
L 304 205.55
Q 301.1 205.55 298.75 203.85 296.4 202.15 295.45 199.35 294.55 196.6 295.4 193.85
L 306.85 157.6
Q 307.75 154.8 310.1 153.05 311.4 152.1 312.9 151.65 314.1 151.3 315.4 151.3 318.3 151.25 320.65 153 325.95 156.75 330.75 161.55
M 342.1 229.55
Q 345 229.55 347.35 231.3 348.6 232.2 349.45 233.45 350.2 234.45 350.6 235.75 351.55 238.45 350.7 241.2 345.3 258.85 331.35 272.95 331.15 273.1 331 273.25
L 331.05 273.25
Q 326.1 278.2 320.65 282.1 318.3 283.8 315.4 283.8 314.1 283.8 312.85 283.45 311.35 283 310.05 282.05 307.7 280.3 306.8 277.5
L 295.4 241.25
Q 294.55 238.5 295.45 235.75 296.4 232.95 298.75 231.3 301.1 229.55 304 229.55
L 342.1 229.55
M 224.5 161.55
Q 224.5 160.3 224.9 159.05 225.8 156.3 228.1 154.5 248.55 138.85 275.35 138.75 278.25 138.75 280.6 140.5 281.65 141.25 282.4 142.2 283.4 143.4 283.9 144.95 284.85 147.7 283.95 150.45
L 272.65 186.3
Q 271.8 189.05 269.4 190.85 267.1 192.6 264.15 192.6 261.25 192.6 258.85 190.9
L 228.25 168.95
Q 225.9 167.25 225 164.5 224.5 163 224.5 161.55
M 205.85 187.15
Q 207.3 186.6 208.9 186.6 211.75 186.6 214.15 188.25
L 244.7 210.25
Q 247.1 211.95 248 214.8 248.9 217.55 248 220.35 247.1 223.15 244.7 224.85
L 214.15 246.85
Q 211.8 248.5 208.9 248.5 207.3 248.5 205.9 248 204.7 247.55 203.65 246.75 201.3 245.05 200.35 242.35 196.65 230.7 196.65 217.6
L 196.65 217.55
Q 196.6 204.4 200.3 192.85 201.25 190.05 203.6 188.35 204.7 187.55 205.85 187.15
M 278.65 207.15
Q 281.1 207.9 283.1 209.85 286.3 213.05 286.3 217.55 286.3 222.05 283.1 225.25 281.1 227.2 278.65 227.95 277.15 228.4 275.4 228.4 270.9 228.4 267.75 225.25 267.1 224.55 266.6 223.9 264.55 221.15 264.55 217.55 264.55 213.95 266.6 211.25 267.1 210.55 267.75 209.85 270.9 206.7 275.4 206.7 277.15 206.7 278.65 207.15
M 264.15 242.5
Q 267.1 242.5 269.4 244.3 271.8 246.05 272.65 248.8
L 283.95 284.65
Q 284.85 287.4 283.9 290.15 283.4 291.7 282.4 292.9 281.65 293.9 280.6 294.65 278.25 296.35 275.35 296.35 248.55 296.25 228.1 280.6 225.8 278.8 224.9 276.1 224.5 274.8 224.5 273.5 224.5 272.05 225 270.6 225.9 267.85 228.25 266.15
L 258.85 244.2
Q 261.25 242.5 264.15 242.5 Z"/>
</g>
</defs>

<g transform="matrix( 1, 0, 0, 1, 0,0) ">
<use xlink:href="#Layer1_0_FILL"/>
</g>
</svg>
