
<svg xmlns="http://www.w3.org/2000/svg" version="1.1" xmlns:xlink="http://www.w3.org/1999/xlink" preserveAspectRatio="none" x="0px" y="0px" width="550px" height="400px" viewBox="0 0 550 400">
<defs>
<g id="Solve_Flat_0_Layer0_0_FILL">
<path fill="#000000" stroke="none" d="
M 48.15 18.7
L 48.15 2.8
Q 39.35 0 29.85 0 16.5 0 8.25 5.8 0 11.55 0 21.75 0 30.1 4.8 35.05 9.6 39.95 22.5 43.95 32.8 47.1 32.8 51.85 32.8 58.55 20.3 58.55 10.35 58.55 0 52.25
L 0 68.95
Q 9.55 72.5 20.8 72.5 35.1 72.5 43.65 66.6 52.25 60.7 52.25 50 52.25 44.5 49.8 40.3 47.3 36.1 42.6 33.55 37.85 31 28.5 27.85 19.75 24.95 19.75 20.2 19.75 17.35 22.65 15.7 25.6 13.95 30.4 13.95 40.1 13.95 48.15 18.7
M 131.75 35.35
Q 131.75 19.2 121.95 9.6 112.15 0 95.45 0 78.2 0 68 9.75 57.75 19.5 57.75 36.55 57.75 53.2 67.7 62.85 77.6 72.5 94.45 72.5 111.65 72.5 121.7 62.45 131.75 52.35 131.75 35.35
M 106.4 15.6
Q 106.85 15.35 107.15 14.85 107.8 15.25 108.45 15.7 108.2 16.15 108.2 16.7 108.2 17.25 108.55 17.55 108.95 17.85 109.5 17.65 110 17.5 110.35 17.1 110.95 17.6 111.5 18.1 111.2 18.55 111.1 19 111.05 19.6 111.35 19.95 111.7 20.25 112.25 20.15 112.75 20.1 113.15 19.8 113.7 20.35 114.15 20.95 113.75 21.3 113.6 21.8 113.45 22.35 113.75 22.75 114 23.1 114.6 23.1 115.1 23.1 115.55 22.8 116 23.5 116.4 24.15 115.95 24.45 115.7 24.85 115.4 25.4 115.65 25.85 115.85 26.3 116.45 26.35 116.95 26.45 117.45 26.25 117.8 26.95 118.05 27.65 117.55 27.85 117.25 28.3 116.9 28.75 117 29.2 117.2 29.65 117.75 29.85 118.2 30 118.75 29.9 118.95 30.65 119.1 31.4 118.6 31.5 118.2 31.9 117.85 32.3 117.9 32.75 117.95 33.25 118.5 33.5 118.9 33.75 119.45 33.7 119.5 34.45 119.55 35.25 119 35.3 118.65 35.6 118.15 35.95 118.15 36.45 118.15 36.95 118.65 37.25 119 37.55 119.55 37.6 119.5 38.35 119.45 39.15 118.9 39.1 118.45 39.3 117.95 39.6 117.9 40.05 117.8 40.55 118.2 40.95 118.55 41.35 119.1 41.45 118.95 42.2 118.8 42.95 118.2 42.8 117.75 42.95 117.15 43.15 117 43.65 116.9 44.1 117.2 44.55 117.5 44.95 118.05 45.2 117.8 45.9 117.45 46.6 116.95 46.4 116.45 46.5 115.85 46.55 115.6 47 115.4 47.45 115.7 47.95 115.9 48.45 116.4 48.7 116.05 49.4 115.55 50.05 115.1 49.75 114.6 49.75 114 49.75 113.7 50.15 113.45 50.5 113.6 51.1 113.8 51.55 114.15 51.95 113.7 52.5 113.2 53.1 112.75 52.75 112.25 52.65 111.7 52.55 111.35 52.9 111.05 53.25 111.15 53.85 111.2 54.3 111.5 54.75 110.95 55.25 110.35 55.75 110 55.35 109.5 55.15 108.95 55 108.55 55.3 108.2 55.55 108.2 56.15 108.2 56.7 108.5 57.15 107.85 57.6 107.2 58 106.9 57.5 106.45 57.25 105.9 57 105.5 57.2 105.05 57.4 104.95 58 104.85 58.55 105.1 59.05 104.4 59.4 103.65 59.7 103.45 59.1 103 58.85 102.55 58.45 102.05 58.6 101.6 58.8 101.45 59.3 101.25 59.85 101.45 60.45 100.7 60.65 99.9 60.8 99.8 60.2 99.4 59.8 98.95 59.4 98.5 59.45 98 59.55 97.8 60.05 97.55 60.55 97.6 61.1 96.85 61.2 96.1 61.25 96.05 60.65 95.7 60.2 95.35 59.75 94.9 59.75 94.4 59.75 94.1 60.2 93.75 60.65 93.7 61.25 92.95 61.25 92.15 61.15 92.25 60.55 92 60.05 91.7 59.55 91.25 59.45 90.75 59.35 90.4 59.8 89.95 60.2 89.8 60.8 89.05 60.7 88.3 60.5 88.5 59.85 88.35 59.35 88.15 58.8 87.65 58.65 87.2 58.45 86.7 58.85 86.3 59.15 86.05 59.8 85.35 59.55 84.65 59.2 84.9 58.6 84.8 58 84.7 57.45 84.3 57.2 83.85 57 83.35 57.25 82.8 57.55 82.55 58.1 81.85 57.75 81.2 57.3 81.6 56.8 81.6 56.15 81.6 55.6 81.2 55.3 80.85 55.05 80.25 55.2 79.75 55.4 79.3 55.95 78.75 55.4 78.1 54.9 78.6 54.4 78.7 53.85 78.8 53.25 78.4 52.95 78.05 52.55 77.5 52.65 76.95 52.75 76.45 53.2 75.9 52.65 75.4 52.05 75.95 51.65 76.1 51.15 76.25 50.55 76 50.15 75.7 49.75 75.15 49.75 74.55 49.75 74 50.2 73.55 49.5 73.15 48.85
L 73.2 48.8
Q 73.8 48.5 74.05 48 74.3 47.5 74.1 47.05 73.9 46.6 73.3 46.55 72.7 46.45 72.15 46.7 72.1 46.7 72.1 46.75 71.75 46 71.45 45.3 71.45 45.25 71.5 45.25 72.2 45.05 72.5 44.6 72.85 44.1 72.7 43.65 72.55 43.15 72 43 71.45 42.8 70.8 43
L 70.75 43.05
Q 70.55 42.3 70.4 41.5
L 70.45 41.5
Q 71.1 41.4 71.5 40.95 71.95 40.6 71.85 40.1 71.75 39.6 71.25 39.35 70.75 39.05 70.05 39.15 69.95 38.4 69.95 37.65 70.6 37.65 71.05 37.25 71.55 36.95 71.55 36.45 71.55 36 71.05 35.65 70.6 35.3 69.95 35.3 69.95 34.5 70.05 33.7 70.7 33.8 71.25 33.55 71.75 33.25 71.85 32.8 71.9 32.3 71.5 31.95 71.1 31.5 70.45 31.35
L 70.4 31.35
Q 70.5 30.6 70.75 29.85
L 70.8 29.85
Q 71.4 30.05 72 29.9 72.55 29.7 72.7 29.25 72.85 28.75 72.5 28.35 72.15 27.85 71.5 27.6
L 71.45 27.6
Q 71.75 26.85 72.05 26.15 72.1 26.15 72.15 26.2 72.7 26.5 73.3 26.4 73.9 26.3 74.15 25.85 74.3 25.45 74.05 24.9 73.8 24.4 73.2 24.1 73.2 24.05 73.15 24.05 73.55 23.4 74 22.75 74.5 23.1 75.15 23.1 75.7 23.15 76 22.75 76.25 22.35 76.1 21.8 75.9 21.25 75.4 20.9 75.9 20.25 76.4 19.7 76.9 20.1 77.45 20.2 78.05 20.3 78.35 19.95 78.7 19.6 78.6 19 78.5 18.5 78.05 18.05 78.7 17.5 79.3 17 79.7 17.5 80.2 17.65 80.8 17.85 81.15 17.55 81.55 17.25 81.55 16.7 81.55 16.15 81.15 15.6 81.85 15.2 82.55 14.75 82.8 15.35 83.35 15.6 83.85 15.9 84.3 15.65 84.7 15.4 84.8 14.85 84.9 14.25 84.65 13.7 85.3 13.35 86.05 13.15 86.25 13.7 86.7 14.1 87.2 14.4 87.6 14.25 88.1 14.15 88.3 13.55 88.5 13.05 88.3 12.4 89.05 12.25 89.8 12.1 89.95 12.65 90.35 13.1 90.7 13.45 91.2 13.4 91.7 13.3 91.95 12.8 92.2 12.35 92.15 11.75 92.9 11.65 93.7 11.65 93.75 12.2 94.05 12.6 94.35 13.1 94.9 13.1 95.35 13.1 95.7 12.6 96 12.25 96.05 11.65 96.85 11.7 97.6 11.75 97.55 12.35 97.8 12.8 98 13.3 98.5 13.35 99 13.45 99.4 13.05 99.8 12.7 99.9 12.15 100.7 12.3 101.4 12.45 101.25 13.05 101.4 13.55 101.6 14.15 102.05 14.25 102.55 14.4 102.95 14.05 103.4 13.75 103.65 13.2 104.35 13.45 105.05 13.8 104.85 14.3 104.9 14.85 105 15.4 105.45 15.65 105.85 15.9 106.4 15.6
M 100.45 39.75
Q 99.9 40.15 99.65 40.85 99.45 41.5 99.65 42.1
L 102.4 50.85
Q 102.6 51.5 103.15 51.95 103.5 52.15 103.8 52.25 104.1 52.3 104.45 52.3 105.15 52.3 105.65 51.95 107 51 108.2 49.8 108.25 49.75 108.3 49.75 111.6 46.35 112.9 42.1 113.15 41.45 112.9 40.85 112.8 40.5 112.6 40.25 112.4 39.95 112.1 39.75 111.5 39.3 110.85 39.3
L 101.7 39.3
Q 101 39.3 100.45 39.75
M 90.85 42.8
L 83.55 48.1
Q 82.95 48.5 82.75 49.2 82.65 49.5 82.65 49.85 82.65 50.2 82.75 50.45 82.9 51.15 83.5 51.55 88.4 55.3 94.85 55.35 95.5 55.35 96.1 54.95 96.35 54.75 96.5 54.5 96.75 54.2 96.9 53.85 97.1 53.2 96.9 52.55
L 94.2 43.95
Q 94 43.3 93.4 42.85 92.85 42.45 92.15 42.45 91.4 42.45 90.85 42.8
M 88.3 37.1
Q 88.5 36.45 88.3 35.8 88.05 35.1 87.5 34.7
L 80.15 29.45
Q 79.55 29 78.9 29 78.5 29 78.15 29.15 77.9 29.25 77.6 29.45 77.05 29.85 76.85 30.5 75.95 33.25 75.95 36.45 75.95 39.6 76.85 42.4 77.1 43.05 77.65 43.45 77.9 43.65 78.15 43.75 78.5 43.85 78.9 43.85 79.6 43.85 80.15 43.5
L 87.5 38.2
Q 88.05 37.8 88.3 37.1
M 93 34.6
Q 92.85 34.75 92.75 34.95 92.25 35.6 92.25 36.45 92.25 37.3 92.75 38 92.85 38.1 93 38.3 93.75 39.05 94.85 39.05 95.25 39.05 95.6 38.95 96.2 38.8 96.7 38.3 97.45 37.5 97.45 36.45 97.45 35.35 96.7 34.6 96.2 34.15 95.6 33.95 95.25 33.85 94.85 33.85 93.75 33.85 93 34.6
M 83.5 21.3
Q 82.9 21.75 82.75 22.4 82.65 22.75 82.65 23 82.65 23.35 82.75 23.75 82.95 24.4 83.55 24.75
L 90.85 30.05
Q 91.4 30.45 92.15 30.45 92.85 30.45 93.4 30.05 94 29.6 94.2 28.95
L 96.9 20.35
Q 97.1 19.7 96.9 19 96.75 18.65 96.5 18.35 96.35 18.1 96.1 18 95.5 17.55 94.85 17.55 88.4 17.55 83.5 21.3
M 103.15 20.95
Q 102.6 21.4 102.4 22.05
L 99.65 30.75
Q 99.45 31.4 99.65 32.1 99.9 32.75 100.45 33.2 101 33.55 101.7 33.55
L 110.85 33.55
Q 111.5 33.55 112.1 33.2 112.4 32.95 112.6 32.65 112.8 32.4 112.9 32.1 113.15 31.4 112.9 30.75 111.6 26.5 108.2 23.1
L 108.2 23.05
Q 108.15 23.05 108.15 23 106.95 21.85 105.65 20.95 105.15 20.55 104.45 20.55 104.1 20.55 103.8 20.65 103.5 20.75 103.15 20.95
M 194.2 70.8
L 194.2 54.6 159.05 54.6 159.05 2.35 138.95 2.35 138.95 70.8 194.2 70.8
M 216.3 45.2
L 203.6 1.7 181.95 1.7 206.65 70.8 229.45 70.8 255.4 1.7 234.3 1.7 221.35 45.55
Q 219.4 52.2 218.9 57.1
L 218.6 57.1
Q 218.35 52.3 216.3 45.2
M 310.05 8.95
Q 301.75 0 287.05 0 272.3 0 262.55 10.35 252.8 20.7 252.8 37.25 252.8 53.85 262 63.2 271.15 72.5 287.65 72.5 302.95 72.5 312.4 67.2
L 312.4 52.35
Q 303.65 58 292.2 58 273.9 58 272.8 41.95
L 318.3 41.95 318.3 33.35
Q 318.3 17.8 310.05 8.95
M 286.95 13.8
Q 299.5 13.8 299.5 29.3
L 272.75 29.3
Q 273.75 22.3 277.75 18.05 281.75 13.8 286.95 13.8 Z"/>
</g>
</defs>

<g transform="matrix( 1, 0, 0, 1, 28.9,287.15) ">
<g transform="matrix( 1, 0, 0, 1, 0,0) ">
<use xlink:href="#Solve_Flat_0_Layer0_0_FILL"/>
</g>
</g>
</svg>
