
<svg xmlns="http://www.w3.org/2000/svg" version="1.1" xmlns:xlink="http://www.w3.org/1999/xlink" preserveAspectRatio="none" x="0px" y="0px" width="550px" height="400px" viewBox="0 0 550 400">
<defs>
<g id="Layer2_0_FILL">
<path fill="#000000" stroke="none" d="
M 366.8 255.35
L 366.8 174.3 15.8 174.3 15.8 255.35 366.8 255.35 Z"/>
</g>

<g id="Solve_Flat_0_Layer0_0_FILL">
<path fill="#000000" stroke="none" d="
M 48.15 18.7
L 48.15 2.8
Q 39.35 0 29.85 0 16.5 0 8.25 5.8 0 11.55 0 21.75 0 30.1 4.8 35.05 9.6 39.95 22.5 43.95 32.8 47.1 32.8 51.85 32.8 58.55 20.3 58.55 10.35 58.55 0 52.25
L 0 68.95
Q 9.55 72.5 20.8 72.5 35.1 72.5 43.65 66.6 52.25 60.7 52.25 50 52.25 44.5 49.8 40.3 47.3 36.1 42.6 33.55 37.85 31 28.5 27.85 19.75 24.95 19.75 20.2 19.75 17.35 22.65 15.7 25.6 13.95 30.4 13.95 40.1 13.95 48.15 18.7
M 131.75 35.35
Q 131.75 19.2 121.95 9.6 112.15 0 95.45 0 78.2 0 68 9.75 57.75 19.5 57.75 36.55 57.75 53.2 67.7 62.85 77.6 72.5 94.45 72.5 111.65 72.5 121.7 62.45 131.75 52.35 131.75 35.35
M 106.4 15.6
Q 106.85 15.35 107.15 14.85 107.8 15.25 108.45 15.7 108.2 16.15 108.2 16.7 108.2 17.25 108.55 17.55 108.95 17.85 109.5 17.65 110 17.5 110.35 17.1 110.95 17.6 111.5 18.1 111.2 18.55 111.1 19 111.05 19.6 111.35 19.95 111.7 20.25 112.25 20.15 112.75 20.1 113.15 19.8 113.7 20.35 114.15 20.95 113.75 21.3 113.6 21.8 113.45 22.35 113.75 22.75 114 23.1 114.6 23.1 115.1 23.1 115.55 22.8 116 23.5 116.4 24.15 115.95 24.45 115.7 24.85 115.4 25.4 115.65 25.85 115.85 26.3 116.45 26.35 116.95 26.45 117.45 26.25 117.8 26.95 118.05 27.65 117.55 27.85 117.25 28.3 116.9 28.75 117 29.2 117.2 29.65 117.75 29.85 118.2 30 118.75 29.9 118.95 30.65 119.1 31.4 118.6 31.5 118.2 31.9 117.85 32.3 117.9 32.75 117.95 33.25 118.5 33.5 118.9 33.75 119.45 33.7 119.5 34.45 119.55 35.25 119 35.3 118.65 35.6 118.15 35.95 118.15 36.45 118.15 36.95 118.65 37.25 119 37.55 119.55 37.6 119.5 38.35 119.45 39.15 118.9 39.1 118.45 39.3 117.95 39.6 117.9 40.05 117.8 40.55 118.2 40.95 118.55 41.35 119.1 41.45 118.95 42.2 118.8 42.95 118.2 42.8 117.75 42.95 117.15 43.15 117 43.65 116.9 44.1 117.2 44.55 117.5 44.95 118.05 45.2 117.8 45.9 117.45 46.6 116.95 46.4 116.45 46.5 115.85 46.55 115.6 47 115.4 47.45 115.7 47.95 115.9 48.45 116.4 48.7 116.05 49.4 115.55 50.05 115.1 49.75 114.6 49.75 114 49.75 113.7 50.15 113.45 50.5 113.6 51.1 113.8 51.55 114.15 51.95 113.7 52.5 113.2 53.1 112.75 52.75 112.25 52.65 111.7 52.55 111.35 52.9 111.05 53.25 111.15 53.85 111.2 54.3 111.5 54.75 110.95 55.25 110.35 55.75 110 55.35 109.5 55.15 108.95 55 108.55 55.3 108.2 55.55 108.2 56.15 108.2 56.7 108.5 57.15 107.85 57.6 107.2 58 106.9 57.5 106.45 57.25 105.9 57 105.5 57.2 105.05 57.4 104.95 58 104.85 58.55 105.1 59.05 104.4 59.4 103.65 59.7 103.45 59.1 103 58.85 102.55 58.45 102.05 58.6 101.6 58.8 101.45 59.3 101.25 59.85 101.45 60.45 100.7 60.65 99.9 60.8 99.8 60.2 99.4 59.8 98.95 59.4 98.5 59.45 98 59.55 97.8 60.05 97.55 60.55 97.6 61.1 96.85 61.2 96.1 61.25 96.05 60.65 95.7 60.2 95.35 59.75 94.9 59.75 94.4 59.75 94.1 60.2 93.75 60.65 93.7 61.25 92.95 61.25 92.15 61.15 92.25 60.55 92 60.05 91.7 59.55 91.25 59.45 90.75 59.35 90.4 59.8 89.95 60.2 89.8 60.8 89.05 60.7 88.3 60.5 88.5 59.85 88.35 59.35 88.15 58.8 87.65 58.65 87.2 58.45 86.7 58.85 86.3 59.15 86.05 59.8 85.35 59.55 84.65 59.2 84.9 58.6 84.8 58 84.7 57.45 84.3 57.2 83.85 57 83.35 57.25 82.8 57.55 82.55 58.1 81.85 57.75 81.2 57.3 81.6 56.8 81.6 56.15 81.6 55.6 81.2 55.3 80.85 55.05 80.25 55.2 79.75 55.4 79.3 55.95 78.75 55.4 78.1 54.9 78.6 54.4 78.7 53.85 78.8 53.25 78.4 52.95 78.05 52.55 77.5 52.65 76.95 52.75 76.45 53.2 75.9 52.65 75.4 52.05 75.95 51.65 76.1 51.15 76.25 50.55 76 50.15 75.7 49.75 75.15 49.75 74.55 49.75 74 50.2 73.55 49.5 73.15 48.85
L 73.2 48.8
Q 73.8 48.5 74.05 48 74.3 47.5 74.1 47.05 73.9 46.6 73.3 46.55 72.7 46.45 72.15 46.7 72.1 46.7 72.1 46.75 71.75 46 71.45 45.3 71.45 45.25 71.5 45.25 72.2 45.05 72.5 44.6 72.85 44.1 72.7 43.65 72.55 43.15 72 43 71.45 42.8 70.8 43
L 70.75 43.05
Q 70.55 42.3 70.4 41.5
L 70.45 41.5
Q 71.1 41.4 71.5 40.95 71.95 40.6 71.85 40.1 71.75 39.6 71.25 39.35 70.75 39.05 70.05 39.15 69.95 38.4 69.95 37.65 70.6 37.65 71.05 37.25 71.55 36.95 71.55 36.45 71.55 36 71.05 35.65 70.6 35.3 69.95 35.3 69.95 34.5 70.05 33.7 70.7 33.8 71.25 33.55 71.75 33.25 71.85 32.8 71.9 32.3 71.5 31.95 71.1 31.5 70.45 31.35
L 70.4 31.35
Q 70.5 30.6 70.75 29.85
L 70.8 29.85
Q 71.4 30.05 72 29.9 72.55 29.7 72.7 29.25 72.85 28.75 72.5 28.35 72.15 27.85 71.5 27.6
L 71.45 27.6
Q 71.75 26.85 72.05 26.15 72.1 26.15 72.15 26.2 72.7 26.5 73.3 26.4 73.9 26.3 74.15 25.85 74.3 25.45 74.05 24.9 73.8 24.4 73.2 24.1 73.2 24.05 73.15 24.05 73.55 23.4 74 22.75 74.5 23.1 75.15 23.1 75.7 23.15 76 22.75 76.25 22.35 76.1 21.8 75.9 21.25 75.4 20.9 75.9 20.25 76.4 19.7 76.9 20.1 77.45 20.2 78.05 20.3 78.35 19.95 78.7 19.6 78.6 19 78.5 18.5 78.05 18.05 78.7 17.5 79.3 17 79.7 17.5 80.2 17.65 80.8 17.85 81.15 17.55 81.55 17.25 81.55 16.7 81.55 16.15 81.15 15.6 81.85 15.2 82.55 14.75 82.8 15.35 83.35 15.6 83.85 15.9 84.3 15.65 84.7 15.4 84.8 14.85 84.9 14.25 84.65 13.7 85.3 13.35 86.05 13.15 86.25 13.7 86.7 14.1 87.2 14.4 87.6 14.25 88.1 14.15 88.3 13.55 88.5 13.05 88.3 12.4 89.05 12.25 89.8 12.1 89.95 12.65 90.35 13.1 90.7 13.45 91.2 13.4 91.7 13.3 91.95 12.8 92.2 12.35 92.15 11.75 92.9 11.65 93.7 11.65 93.75 12.2 94.05 12.6 94.35 13.1 94.9 13.1 95.35 13.1 95.7 12.6 96 12.25 96.05 11.65 96.85 11.7 97.6 11.75 97.55 12.35 97.8 12.8 98 13.3 98.5 13.35 99 13.45 99.4 13.05 99.8 12.7 99.9 12.15 100.7 12.3 101.4 12.45 101.25 13.05 101.4 13.55 101.6 14.15 102.05 14.25 102.55 14.4 102.95 14.05 103.4 13.75 103.65 13.2 104.35 13.45 105.05 13.8 104.85 14.3 104.9 14.85 105 15.4 105.45 15.65 105.85 15.9 106.4 15.6
M 100.45 39.75
Q 99.9 40.15 99.65 40.85 99.45 41.5 99.65 42.1
L 102.4 50.85
Q 102.6 51.5 103.15 51.95 103.5 52.15 103.8 52.25 104.1 52.3 104.45 52.3 105.15 52.3 105.65 51.95 107 51 108.2 49.8 108.25 49.75 108.3 49.75 111.6 46.35 112.9 42.1 113.15 41.45 112.9 40.85 112.8 40.5 112.6 40.25 112.4 39.95 112.1 39.75 111.5 39.3 110.85 39.3
L 101.7 39.3
Q 101 39.3 100.45 39.75
M 90.85 42.8
L 83.55 48.1
Q 82.95 48.5 82.75 49.2 82.65 49.5 82.65 49.85 82.65 50.2 82.75 50.45 82.9 51.15 83.5 51.55 88.4 55.3 94.85 55.35 95.5 55.35 96.1 54.95 96.35 54.75 96.5 54.5 96.75 54.2 96.9 53.85 97.1 53.2 96.9 52.55
L 94.2 43.95
Q 94 43.3 93.4 42.85 92.85 42.45 92.15 42.45 91.4 42.45 90.85 42.8
M 88.3 37.1
Q 88.5 36.45 88.3 35.8 88.05 35.1 87.5 34.7
L 80.15 29.45
Q 79.55 29 78.9 29 78.5 29 78.15 29.15 77.9 29.25 77.6 29.45 77.05 29.85 76.85 30.5 75.95 33.25 75.95 36.45 75.95 39.6 76.85 42.4 77.1 43.05 77.65 43.45 77.9 43.65 78.15 43.75 78.5 43.85 78.9 43.85 79.6 43.85 80.15 43.5
L 87.5 38.2
Q 88.05 37.8 88.3 37.1
M 93 34.6
Q 92.85 34.75 92.75 34.95 92.25 35.6 92.25 36.45 92.25 37.3 92.75 38 92.85 38.1 93 38.3 93.75 39.05 94.85 39.05 95.25 39.05 95.6 38.95 96.2 38.8 96.7 38.3 97.45 37.5 97.45 36.45 97.45 35.35 96.7 34.6 96.2 34.15 95.6 33.95 95.25 33.85 94.85 33.85 93.75 33.85 93 34.6
M 83.5 21.3
Q 82.9 21.75 82.75 22.4 82.65 22.75 82.65 23 82.65 23.35 82.75 23.75 82.95 24.4 83.55 24.75
L 90.85 30.05
Q 91.4 30.45 92.15 30.45 92.85 30.45 93.4 30.05 94 29.6 94.2 28.95
L 96.9 20.35
Q 97.1 19.7 96.9 19 96.75 18.65 96.5 18.35 96.35 18.1 96.1 18 95.5 17.55 94.85 17.55 88.4 17.55 83.5 21.3
M 103.15 20.95
Q 102.6 21.4 102.4 22.05
L 99.65 30.75
Q 99.45 31.4 99.65 32.1 99.9 32.75 100.45 33.2 101 33.55 101.7 33.55
L 110.85 33.55
Q 111.5 33.55 112.1 33.2 112.4 32.95 112.6 32.65 112.8 32.4 112.9 32.1 113.15 31.4 112.9 30.75 111.6 26.5 108.2 23.1
L 108.2 23.05
Q 108.15 23.05 108.15 23 106.95 21.85 105.65 20.95 105.15 20.55 104.45 20.55 104.1 20.55 103.8 20.65 103.5 20.75 103.15 20.95
M 194.2 70.8
L 194.2 54.6 159.05 54.6 159.05 2.35 138.95 2.35 138.95 70.8 194.2 70.8
M 216.3 45.2
L 203.6 1.7 181.95 1.7 206.65 70.8 229.45 70.8 255.4 1.7 234.3 1.7 221.35 45.55
Q 219.4 52.2 218.9 57.1
L 218.6 57.1
Q 218.35 52.3 216.3 45.2
M 310.05 8.95
Q 301.75 0 287.05 0 272.3 0 262.55 10.35 252.8 20.7 252.8 37.25 252.8 53.85 262 63.2 271.15 72.5 287.65 72.5 302.95 72.5 312.4 67.2
L 312.4 52.35
Q 303.65 58 292.2 58 273.9 58 272.8 41.95
L 318.3 41.95 318.3 33.35
Q 318.3 17.8 310.05 8.95
M 286.95 13.8
Q 299.5 13.8 299.5 29.3
L 272.75 29.3
Q 273.75 22.3 277.75 18.05 281.75 13.8 286.95 13.8 Z"/>
</g>

<g id="Layer1_1_FILL">
<path fill="#FFFFFF" stroke="none" d="
M 149.65 189.45
Q 139.85 179.85 123.15 179.85 105.9 179.85 95.7 189.6 85.45 199.35 85.45 216.4 85.45 233.05 95.4 242.7 105.3 252.35 122.15 252.35 139.35 252.35 149.4 242.3 159.45 232.2 159.45 215.2 159.45 199.05 149.65 189.45
M 108.85 195.45
Q 109.55 195.05 110.25 194.6 110.5 195.2 111.05 195.45 111.55 195.75 112 195.5 112.4 195.25 112.5 194.7 112.6 194.1 112.35 193.55 113 193.2 113.75 193 113.95 193.55 114.4 193.95 114.9 194.25 115.3 194.1 115.8 194 116 193.4 116.2 192.9 116 192.25 116.75 192.1 117.5 191.95 117.65 192.5 118.05 192.95 118.4 193.3 118.9 193.25 119.4 193.15 119.65 192.65 119.9 192.2 119.85 191.6 120.6 191.5 121.4 191.5 121.45 192.05 121.75 192.45 122.05 192.95 122.6 192.95 123.05 192.95 123.4 192.45 123.7 192.1 123.75 191.5 124.55 191.55 125.3 191.6 125.25 192.2 125.5 192.65 125.7 193.15 126.2 193.2 126.7 193.3 127.1 192.9 127.5 192.55 127.6 192 128.4 192.15 129.1 192.3 128.95 192.9 129.1 193.4 129.3 194 129.75 194.1 130.25 194.25 130.65 193.9 131.1 193.6 131.35 193.05 132.05 193.3 132.75 193.65 132.55 194.15 132.6 194.7 132.7 195.25 133.15 195.5 133.55 195.75 134.1 195.45 134.55 195.2 134.85 194.7 135.5 195.1 136.15 195.55 135.9 196 135.9 196.55 135.9 197.1 136.25 197.4 136.65 197.7 137.2 197.5 137.7 197.35 138.05 196.95 138.65 197.45 139.2 197.95 138.9 198.4 138.8 198.85 138.75 199.45 139.05 199.8 139.4 200.1 139.95 200 140.45 199.95 140.85 199.65 141.4 200.2 141.85 200.8 141.45 201.15 141.3 201.65 141.15 202.2 141.45 202.6 141.7 202.95 142.3 202.95 142.8 202.95 143.25 202.65 143.7 203.35 144.1 204 143.65 204.3 143.4 204.7 143.1 205.25 143.35 205.7 143.55 206.15 144.15 206.2 144.65 206.3 145.15 206.1 145.5 206.8 145.75 207.5 145.25 207.7 144.95 208.15 144.6 208.6 144.7 209.05 144.9 209.5 145.45 209.7 145.9 209.85 146.45 209.75 146.65 210.5 146.8 211.25 146.3 211.35 145.9 211.75 145.55 212.15 145.6 212.6 145.65 213.1 146.2 213.35 146.6 213.6 147.15 213.55 147.2 214.3 147.25 215.1 146.7 215.15 146.35 215.45 145.85 215.8 145.85 216.3 145.85 216.8 146.35 217.1 146.7 217.4 147.25 217.45 147.2 218.2 147.15 219 146.6 218.95 146.15 219.15 145.65 219.45 145.6 219.9 145.5 220.4 145.9 220.8 146.25 221.2 146.8 221.3 146.65 222.05 146.5 222.8 145.9 222.65 145.45 222.8 144.85 223 144.7 223.5 144.6 223.95 144.9 224.4 145.2 224.8 145.75 225.05 145.5 225.75 145.15 226.45 144.65 226.25 144.15 226.35 143.55 226.4 143.3 226.85 143.1 227.3 143.4 227.8 143.6 228.3 144.1 228.55 143.75 229.25 143.25 229.9 142.8 229.6 142.3 229.6 141.7 229.6 141.4 230 141.15 230.35 141.3 230.95 141.5 231.4 141.85 231.8 141.4 232.35 140.9 232.95 140.45 232.6 139.95 232.5 139.4 232.4 139.05 232.75 138.75 233.1 138.85 233.7 138.9 234.15 139.2 234.6 138.65 235.1 138.05 235.6 137.7 235.2 137.2 235 136.65 234.85 136.25 235.15 135.9 235.4 135.9 236 135.9 236.55 136.2 237 135.55 237.45 134.9 237.85 134.6 237.35 134.15 237.1 133.6 236.85 133.2 237.05 132.75 237.25 132.65 237.85 132.55 238.4 132.8 238.9 132.1 239.25 131.35 239.55 131.15 238.95 130.7 238.7 130.25 238.3 129.75 238.45 129.3 238.65 129.15 239.15 128.95 239.7 129.15 240.3 128.4 240.5 127.6 240.65 127.5 240.05 127.1 239.65 126.65 239.25 126.2 239.3 125.7 239.4 125.5 239.9 125.25 240.4 125.3 240.95 124.55 241.05 123.8 241.1 123.75 240.5 123.4 240.05 123.05 239.6 122.6 239.6 122.1 239.6 121.8 240.05 121.45 240.5 121.4 241.1 120.65 241.1 119.85 241 119.95 240.4 119.7 239.9 119.4 239.4 118.95 239.3 118.45 239.2 118.1 239.65 117.65 240.05 117.5 240.65 116.75 240.55 116 240.35 116.2 239.7 116.05 239.2 115.85 238.65 115.35 238.5 114.9 238.3 114.4 238.7 114 239 113.75 239.65 113.05 239.4 112.35 239.05 112.6 238.45 112.5 237.85 112.4 237.3 112 237.05 111.55 236.85 111.05 237.1 110.5 237.4 110.25 237.95 109.55 237.6 108.9 237.15 109.3 236.65 109.3 236 109.3 235.45 108.9 235.15 108.55 234.9 107.95 235.05 107.45 235.25 107 235.8 106.45 235.25 105.8 234.75 106.3 234.25 106.4 233.7 106.5 233.1 106.1 232.8 105.75 232.4 105.2 232.5 104.65 232.6 104.15 233.05 103.6 232.5 103.1 231.9 103.65 231.5 103.8 231 103.95 230.4 103.7 230 103.4 229.6 102.85 229.6 102.25 229.6 101.7 230.05 101.25 229.35 100.85 228.7
L 100.9 228.65
Q 101.5 228.35 101.75 227.85 102 227.35 101.8 226.9 101.6 226.45 101 226.4 100.4 226.3 99.85 226.55 99.8 226.55 99.8 226.6 99.45 225.85 99.15 225.15 99.15 225.1 99.2 225.1 99.9 224.9 100.2 224.45 100.55 223.95 100.4 223.5 100.25 223 99.7 222.85 99.15 222.65 98.5 222.85
L 98.45 222.9
Q 98.25 222.15 98.1 221.35
L 98.15 221.35
Q 98.8 221.25 99.2 220.8 99.65 220.45 99.55 219.95 99.45 219.45 98.95 219.2 98.45 218.9 97.75 219 97.65 218.25 97.65 217.5 98.3 217.5 98.75 217.1 99.25 216.8 99.25 216.3 99.25 215.85 98.75 215.5 98.3 215.15 97.65 215.15 97.65 214.35 97.75 213.55 98.4 213.65 98.95 213.4 99.45 213.1 99.55 212.65 99.6 212.15 99.2 211.8 98.8 211.35 98.15 211.2
L 98.1 211.2
Q 98.2 210.45 98.45 209.7
L 98.5 209.7
Q 99.1 209.9 99.7 209.75 100.25 209.55 100.4 209.1 100.55 208.6 100.2 208.2 99.85 207.7 99.2 207.45
L 99.15 207.45
Q 99.45 206.7 99.75 206 99.8 206 99.85 206.05 100.4 206.35 101 206.25 101.6 206.15 101.85 205.7 102 205.3 101.75 204.75 101.5 204.25 100.9 203.95 100.9 203.9 100.85 203.9 101.25 203.25 101.7 202.6 102.2 202.95 102.85 202.95 103.4 203 103.7 202.6 103.95 202.2 103.8 201.65 103.6 201.1 103.1 200.75 103.6 200.1 104.1 199.55 104.6 199.95 105.15 200.05 105.75 200.15 106.05 199.8 106.4 199.45 106.3 198.85 106.2 198.35 105.75 197.9 106.4 197.35 107 196.85 107.4 197.35 107.9 197.5 108.5 197.7 108.85 197.4 109.25 197.1 109.25 196.55 109.25 196 108.85 195.45
M 105.3 209.3
Q 104.75 209.7 104.55 210.35 103.65 213.1 103.65 216.3 103.65 219.45 104.55 222.25 104.8 222.9 105.35 223.3 105.6 223.5 105.85 223.6 106.2 223.7 106.6 223.7 107.3 223.7 107.85 223.35
L 115.2 218.05
Q 115.75 217.65 116 216.95 116.2 216.3 116 215.65 115.75 214.95 115.2 214.55
L 107.85 209.3
Q 107.25 208.85 106.6 208.85 106.2 208.85 105.85 209 105.6 209.1 105.3 209.3
M 124.6 233.7
Q 124.8 233.05 124.6 232.4
L 121.9 223.8
Q 121.7 223.15 121.1 222.7 120.55 222.3 119.85 222.3 119.1 222.3 118.55 222.65
L 111.25 227.95
Q 110.65 228.35 110.45 229.05 110.35 229.35 110.35 229.7 110.35 230.05 110.45 230.3 110.6 231 111.2 231.4 116.1 235.15 122.55 235.2 123.2 235.2 123.8 234.8 124.05 234.6 124.2 234.35 124.45 234.05 124.6 233.7
M 127.35 220.7
Q 127.15 221.35 127.35 221.95
L 130.1 230.7
Q 130.3 231.35 130.85 231.8 131.2 232 131.5 232.1 131.8 232.15 132.15 232.15 132.85 232.15 133.35 231.8 134.7 230.85 135.9 229.65 135.95 229.6 136 229.6 139.3 226.2 140.6 221.95 140.85 221.3 140.6 220.7 140.5 220.35 140.3 220.1 140.1 219.8 139.8 219.6 139.2 219.15 138.55 219.15
L 129.4 219.15
Q 128.7 219.15 128.15 219.6 127.6 220 127.35 220.7
M 124.4 214.45
Q 123.9 214 123.3 213.8 122.95 213.7 122.55 213.7 121.45 213.7 120.7 214.45 120.55 214.6 120.45 214.8 119.95 215.45 119.95 216.3 119.95 217.15 120.45 217.85 120.55 217.95 120.7 218.15 121.45 218.9 122.55 218.9 122.95 218.9 123.3 218.8 123.9 218.65 124.4 218.15 125.15 217.35 125.15 216.3 125.15 215.2 124.4 214.45
M 133.35 200.8
Q 132.85 200.4 132.15 200.4 131.8 200.4 131.5 200.5 131.2 200.6 130.85 200.8 130.3 201.25 130.1 201.9
L 127.35 210.6
Q 127.15 211.25 127.35 211.95 127.6 212.6 128.15 213.05 128.7 213.4 129.4 213.4
L 138.55 213.4
Q 139.2 213.4 139.8 213.05 140.1 212.8 140.3 212.5 140.5 212.25 140.6 211.95 140.85 211.25 140.6 210.6 139.3 206.35 135.9 202.95
L 135.9 202.9
Q 135.85 202.9 135.85 202.85 134.65 201.7 133.35 200.8
M 123.8 197.85
Q 123.2 197.4 122.55 197.4 116.1 197.4 111.2 201.15 110.6 201.6 110.45 202.25 110.35 202.6 110.35 202.85 110.35 203.2 110.45 203.6 110.65 204.25 111.25 204.6
L 118.55 209.9
Q 119.1 210.3 119.85 210.3 120.55 210.3 121.1 209.9 121.7 209.45 121.9 208.8
L 124.6 200.2
Q 124.8 199.55 124.6 198.85 124.45 198.5 124.2 198.2 124.05 197.95 123.8 197.85
M 50.35 195.55
Q 53.3 193.8 58.1 193.8 67.8 193.8 75.85 198.55
L 75.85 182.65
Q 67.05 179.85 57.55 179.85 44.2 179.85 35.95 185.65 27.7 191.4 27.7 201.6 27.7 209.95 32.5 214.9 37.3 219.8 50.2 223.8 60.5 226.95 60.5 231.7 60.5 238.4 48 238.4 38.05 238.4 27.7 232.1
L 27.7 248.8
Q 37.25 252.35 48.5 252.35 62.8 252.35 71.35 246.45 79.95 240.55 79.95 229.85 79.95 224.35 77.5 220.15 75 215.95 70.3 213.4 65.55 210.85 56.2 207.7 47.45 204.8 47.45 200.05 47.45 197.2 50.35 195.55
M 231.3 181.55
L 209.65 181.55 234.35 250.65 257.15 250.65 283.1 181.55 262 181.55 249.05 225.4
Q 247.1 232.05 246.6 236.95
L 246.3 236.95
Q 246.05 232.15 244 225.05
L 231.3 181.55
M 186.75 182.2
L 166.65 182.2 166.65 250.65 221.9 250.65 221.9 234.45 186.75 234.45 186.75 182.2
M 346 221.8
L 346 213.2
Q 346 197.65 337.75 188.8 329.45 179.85 314.75 179.85 300 179.85 290.25 190.2 280.5 200.55 280.5 217.1 280.5 233.7 289.7 243.05 298.85 252.35 315.35 252.35 330.65 252.35 340.1 247.05
L 340.1 232.2
Q 331.35 237.85 319.9 237.85 301.6 237.85 300.5 221.8
L 346 221.8
M 305.45 197.9
Q 309.45 193.65 314.65 193.65 327.2 193.65 327.2 209.15
L 300.45 209.15
Q 301.45 202.15 305.45 197.9 Z"/>
</g>

<path id="Layer2_0_1_STROKES" stroke="#009933" stroke-width="1" stroke-linejoin="round" stroke-linecap="round" fill="none" d="
M 15.8 174.3
L 366.8 174.3 366.8 255.35 15.8 255.35 15.8 174.3 Z"/>
</defs>

<g transform="matrix( 1, 0, 0, 1, 0,0) ">
<use xlink:href="#Layer2_0_FILL"/>

<use xlink:href="#Layer2_0_1_STROKES"/>
</g>

<g transform="matrix( 1, 0, 0, 1, 28.9,287.15) ">
<g transform="matrix( 1, 0, 0, 1, 0,0) ">
<use xlink:href="#Solve_Flat_0_Layer0_0_FILL"/>
</g>
</g>

<g transform="matrix( 1, 0, 0, 1, 0,0) ">
<use xlink:href="#Layer1_1_FILL"/>
</g>
</svg>
